<svg width="12" height="12" viewBox="0 0 12 12" fill="none" xmlns="http://www.w3.org/2000/svg">
<g clip-path="url(#clip0_65_3174)">
<path d="M11.7056 10.2318C11.169 10.934 10.507 11.5349 9.7502 11.9999C9.65143 11.4723 9.4926 10.9646 9.2777 10.4889C8.98273 9.83738 8.58631 9.24044 8.10847 8.71946C7.32632 7.86802 6.32259 7.22179 5.19207 6.86736C5.47904 6.82605 5.77402 6.80607 6.07166 6.80607C7.16615 6.80607 8.1979 7.08321 9.09752 7.57355C9.3698 7.07122 9.5273 6.49294 9.5273 5.88002C9.5273 3.91732 7.93229 2.32505 5.96622 2.32505C4.00015 2.32505 2.40514 3.91732 2.40514 5.88002C2.40514 6.12652 2.4305 6.36902 2.47721 6.60087C2.55196 6.96196 2.68276 7.30573 2.85895 7.61752C2.86829 7.63618 2.87496 7.64817 2.88564 7.66283C3.50096 8.72345 4.65017 9.43498 5.96488 9.43498C6.37999 9.43498 6.77774 9.36436 7.1488 9.23112C7.66401 9.73878 8.08044 10.3464 8.36741 11.0193C7.63998 11.359 6.82846 11.5469 5.97423 11.5469C4.00415 11.5469 2.26766 10.5449 1.25192 9.02326C1.06639 8.74877 0.906225 8.4583 0.771416 8.15184C0.631268 7.83471 0.520485 7.50027 0.440401 7.15383C0.345634 6.74344 0.296249 6.31706 0.296249 5.88002C0.296249 2.7501 2.83893 0.211792 5.97423 0.211792C9.10953 0.211792 11.6522 2.7501 11.6522 5.88002C11.6522 6.98861 11.3345 8.02525 10.7793 8.89934C11.1423 9.3004 11.4533 9.74677 11.7043 10.2318H11.7056Z" fill="#6100A5"/>
</g>
<defs>
<clipPath id="clip0_65_3174">
<rect width="12" height="12" fill="white"/>
</clipPath>
</defs>
</svg>
