<svg width="24" height="24" viewBox="0 0 24 24" fill="none" xmlns="http://www.w3.org/2000/svg">
<circle cx="12" cy="12" r="12" fill="#26A17B"/>
<path fill-rule="evenodd" clip-rule="evenodd" d="M13.7819 9.99115V8.1446H17.967V5.33334H6.57313V8.1446H10.7583V9.99115C7.35892 10.1496 4.79999 10.8283 4.79999 11.6414C4.79999 12.4544 7.35892 13.1331 10.7583 13.2916V19.2H13.7853V13.2916C17.1812 13.1331 19.7333 12.4544 19.7333 11.6414C19.7299 10.8283 17.1778 10.1496 13.7819 9.99115ZM13.7853 12.792L13.7433 12.794H13.7422C13.5934 12.8014 13.1514 12.8231 12.2854 12.8231C11.5031 12.8231 10.9564 12.8024 10.7617 12.792V12.7955C7.75865 12.6612 5.51404 12.134 5.51404 11.5036C5.51404 10.8731 7.75522 10.346 10.7617 10.2116V12.265C10.9599 12.2787 11.5202 12.3132 12.2991 12.3132C13.2318 12.3132 13.6999 12.2753 13.7887 12.265V10.2048C16.7883 10.3391 19.0261 10.8663 19.0261 11.4967C19.0193 12.1271 16.7815 12.6542 13.7853 12.792Z" fill="white"/>
</svg>
